<?xml version="1.0" encoding="utf-8"?>
<!-- Generator: Adobe Illustrator 25.2.1, SVG Export Plug-In . SVG Version: 6.00 Build 0)  -->
<svg version="1.1" id="Layer_1" xmlns="http://www.w3.org/2000/svg" xmlns:xlink="http://www.w3.org/1999/xlink" x="0px" y="0px"
	 viewBox="0 0 230 230" style="enable-background:new 0 0 230 230;" xml:space="preserve">
<style type="text/css">
	.st0{fill:url(#SVGID_1_);}
	.st1{fill:#FFFFFF;}
	.st2{fill:#FFFFFF;stroke:#FFFFFF;stroke-width:5;stroke-miterlimit:10;}
	.st3{fill:#221844;}
	.st4{fill:none;stroke:#FFFFFF;stroke-width:5;stroke-miterlimit:10;}
	.st5{fill:url(#SVGID_2_);}
	.st6{fill:none;stroke:#676767;stroke-width:6;}
	.st7{fill:url(#SVGID_3_);}
	.st8{fill:#4E4E4E;}
	.st9{fill:url(#SVGID_4_);}
	.st10{fill:none;stroke:#FFFFFF;stroke-width:6;}
	.st11{fill:url(#SVGID_5_);}
</style>
<g>
	<g>
		<linearGradient id="SVGID_1_" gradientUnits="userSpaceOnUse" x1="38.4395" y1="172.705" x2="191.3504" y2="19.7941">
			<stop  offset="0" style="stop-color:#5969B1"/>
			<stop  offset="1" style="stop-color:#83D2E7"/>
		</linearGradient>
		<path class="st0" d="M73.9,9.3c0.2,0,0.3,0.1,0.5,0.1c8.7,0.2,16.7,2.7,24.2,7c2.2,1.3,4.3,2.8,6.4,4.2c0.1,0.1,0.2,0.1,0.3,0.3
			c-6.5,3.1-11,8-13.6,14.8c-0.2-0.1-0.4-0.2-0.5-0.3c-4.2-2.7-8.7-4.5-13.6-5.2c-3.1-0.5-6.3-0.5-9.5-0.2
			c-6.7,0.7-12.7,3.2-17.9,7.3c-6.9,5.5-11.2,12.6-13,21.2c-0.5,2.5-0.9,5.1-0.8,7.6c0.3,6.8,2.1,13.1,5.9,18.7
			c1.9,2.8,4.1,5.2,6.4,7.6c2.5,2.6,5,5.3,7.5,7.9c0.3,0.3,0.3,0.5,0,0.8c-4.4,5-8.1,10.4-11.1,16.3c-0.1,0.1-0.1,0.2-0.2,0.4
			c-0.9-1-1.8-1.9-2.7-2.8c-3.8-4.1-7.7-8.1-11.4-12.3C23.9,95,19.4,86,17.3,75.8c-0.6-3-0.9-6-1-9c0-0.2-0.1-0.4-0.1-0.6
			c0-0.7,0-1.4,0-2.1c0-0.2,0.1-0.3,0.1-0.5c0.1-3.6,0.5-7.1,1.3-10.6c2.3-10.2,7.1-19.2,14.5-26.7c5.4-5.5,11.8-9.7,18.9-12.5
			c6.6-2.6,13.4-4.3,20.6-4.4c0.2,0,0.3-0.1,0.5-0.1C72.7,9.3,73.3,9.3,73.9,9.3z M91.1,88.6c-0.2,0.1-0.4,0.1-0.5,0.2
			c-9.3,3.6-17.5,8.9-24.5,16.1c-5.2,5.3-9.4,11.3-12.7,18c-4.3,8.9-6.6,18.3-6.8,28.1c-0.1,3,0.2,6.1,0.4,9.1
			c0.3,3.8,1.1,7.5,2.1,11.1c4,14,11.7,25.5,23,34.6c11,8.9,23.6,13.7,37.7,14.8c2.9,0.2,5.8,0.1,8.6,0c3.2-0.1,6.3-0.5,9.5-1.1
			c6.1-1.2,11.9-3.2,17.4-6c8.7-4.4,16.1-10.3,22.2-17.8c5.4-6.6,9.3-13.9,12-21.9c0.2-0.5,0-0.7-0.3-1c-0.9-0.9-1.7-1.8-2.5-2.9
			c-3.6-5.2-7.2-10.4-10.8-15.5c-0.7-1-1.3-2-2-3c-0.1,0-0.1,0-0.2,0c0,1.1,0.1,2.1,0,3.2c-0.1,1.8-0.2,3.7-0.5,5.5
			c-0.9,5.8-2.6,11.3-5.6,16.3c-9.2,15.7-22.9,24.2-41,25.4c-4.1,0.3-8.3-0.1-12.3-1c-12.4-2.8-22.4-9.3-29.8-19.6
			c-5.4-7.5-8.4-16-9-25.3c-0.2-2.4,0-4.8,0.1-7.3c0.1-2.6,0.5-5.2,1.2-7.7c3.5-13.8,11.5-24.2,23.8-31.3c0.4-0.2,0.6-0.5,0.6-1
			c0-6.2,0-12.5,0-18.7c0-0.4,0-0.9,0-1.3C91.2,88.6,91.2,88.6,91.1,88.6z M101.1,97.5c0,6.7,0,13.4,0,20.1c0,1.6,0.1,3.3,0.5,4.8
			c0.8,4.1,3.1,7.1,7,8.8c2.1,0.9,4.4,1.2,6.6,1.2c14.7,0,29.5,0,44.2,0c2.6,0,4.6,1,6,3.2c0.9,1.4,1.8,2.7,2.7,4.1
			c5,7.3,10,14.6,15,21.8c1,1.5,2.2,3,3.4,4.4c1.4,1.6,3.3,2.5,5.5,2.4c1.9-0.1,3.6-0.9,5.1-2.1c2-1.5,3.1-3.5,3.2-6.1
			c0.1-2.4-0.7-4.5-2-6.5c-2.8-4.3-5.7-8.5-8.4-12.8c-4.1-6.4-8.2-12.9-12.3-19.3c-1.5-2.5-3-5-4.9-7.1c-4-4.3-9-6-14.8-5.7
			c-2.2,0.1-4.3,0.4-6.5,0.4c-4.1,0-8.2-0.1-12.3-0.1c-2.4,0-4.8,0-7.2,0c-1.8,0-2.8-0.7-3.1-2.1c-0.2-0.9-0.2-1.9-0.2-2.8
			c0.2-1.6,0.8-2.3,2.4-2.6c0.3-0.1,0.7,0,1,0c6.2,0,12.3,0,18.5,0c2,0,4.1,0,6.1-0.2c2.1-0.2,3.9-1.2,5.2-2.9
			c1.9-2.5,1.6-6.1-0.6-7.9c-1.1-0.9-2.5-1.4-3.9-1.5c-1.4-0.1-2.8-0.2-4.2-0.2c-6.2,0-12.4,0-18.6,0c-1.1,0-2.3,0-3.4-0.1
			c-1.3-0.1-1.9-0.6-2.1-1.9c-0.1-0.5-0.1-1.1-0.1-1.7c0-1.9-0.1-3.7-0.1-5.6c0-2.1,0.1-4.2,0.1-6.3c0-2.9-1.2-5.3-3-7.5
			c-0.3-0.4-0.6-0.5-1.1-0.3c-3,1.3-6.1,2-9.3,2c-3.3,0-6.4-0.7-9.5-1.9c-0.4-0.2-0.6-0.1-0.9,0.2c-1.4,1.5-2.4,3.3-2.9,5.3
			c-0.5,1.7-0.5,3.5-0.5,5.3C101,83.4,101.1,90.4,101.1,97.5C101.1,97.5,101.1,97.5,101.1,97.5z M186.5,116.3
			c2.2-2.3,4.4-4.6,6.5-6.9c2.8-3,5.7-5.9,8.3-9.1c8.2-9.9,12-21.4,12.4-34.1c0.1-3.4-0.3-6.7-0.8-10c-0.9-5.8-2.7-11.3-5.5-16.5
			c-6.1-11.4-15-19.8-26.7-25.2c-6.7-3.1-13.8-4.7-21.2-4.8c-1.4,0-2.8,0-4.1,0.1c-2.5,0.2-5.1,0.4-7.5,0.8
			c-8.4,1.5-16.1,4.9-22.9,10c-0.1,0.1-0.2,0.2-0.3,0.3c6.5,3.2,10.9,8.3,13.4,15.1c0.2-0.2,0.4-0.3,0.6-0.4
			c5.5-3.7,11.5-5.6,18.1-5.8c2.7-0.1,5.5,0.1,8.1,0.7c8.7,1.7,15.8,6.1,21.3,13c4.4,5.6,6.8,12,7.3,19.1c0.2,3.3,0.1,6.6-0.5,9.9
			c-1.3,6.4-4.2,12-8.6,16.9c-3,3.3-6.1,6.5-9.1,9.7c-0.6,0.7-1.3,1.4-1.9,2.1c0.3,0.3,0.5,0.6,0.7,0.8c0.8,1,1.5,2.1,2.5,2.9
			c2.8,2.3,5.1,5,7.1,8.1c0.8,1.3,1.6,2.7,2.5,4.1C186.2,116.6,186.3,116.4,186.5,116.3z M82.9,129.3c-1.8,2.5-3.4,5.2-4.6,8.1
			c-1.6,3.9-2.6,8-2.9,12.2c0,0.2,0.1,0.5,0.3,0.6c3.1,3.3,6.3,6.7,9.4,10c6.5,6.8,12.9,13.7,19.4,20.5c1.4,1.5,2.9,3.1,4.5,4.4
			c2,1.7,4.4,2.4,6.9,2.1c2.7-0.3,5-1.6,6.9-3.5c3.5-3.7,7-7.4,10.4-11c6.6-7,13.2-14,19.8-20.9c0.8-0.9,1.4-1.6,1.1-2.9
			c-0.5-2.1-0.8-4.2-1.2-6.3c0-0.2-0.3-0.3-0.5-0.4c-0.5,0-1,0.1-1.5,0.1c-5.3,0-10.7,0-16,0c-0.5,0-0.9,0.2-1.3,0.6
			c-4.1,4.4-8.3,8.8-12.5,13.2c-1.6,1.7-3.1,3.3-4.7,5c-1.1,1.1-1.8,1.1-2.9,0.1c-0.6-0.6-1.1-1.2-1.7-1.8
			c-7.9-8.4-15.8-16.8-23.8-25.2c-1.6-1.7-3.3-3.4-4.9-5.2C83.1,129,83,129.2,82.9,129.3z M112.6,28.7c-4.1,0.8-7.4,3.1-9.8,6.5
			c-2.1,3.1-3.1,6.5-2.6,10.2c0.6,3.8,2.5,6.9,5.6,9.3c3.3,2.5,7,3.6,11.1,3c4.5-0.7,8-3.2,10.4-7c1.7-2.6,2.4-5.5,2-8.5
			c-0.4-3.7-2-6.8-4.6-9.4c-2.7-2.6-5.8-4.2-10.1-4.3C114.3,28.5,113.4,28.5,112.6,28.7z"/>
	</g>
</g>
</svg>
