<?xml version="1.0" encoding="utf-8"?>
<!-- Generator: Adobe Illustrator 25.2.1, SVG Export Plug-In . SVG Version: 6.00 Build 0)  -->
<svg version="1.1" id="Layer_1" xmlns="http://www.w3.org/2000/svg" xmlns:xlink="http://www.w3.org/1999/xlink" x="0px" y="0px"
	 viewBox="0 0 818 230.9" style="enable-background:new 0 0 818 230.9;" xml:space="preserve">
<style type="text/css">
	.st0{fill:url(#SVGID_1_);}
	.st1{fill:#FFFFFF;}
	.st2{fill:#FFFFFF;stroke:#FFFFFF;stroke-width:5;stroke-miterlimit:10;}
	.st3{fill:#221844;}
	.st4{fill:none;stroke:#FFFFFF;stroke-width:5;stroke-miterlimit:10;}
	.st5{fill:url(#SVGID_2_);}
	.st6{fill:none;stroke:#676767;stroke-width:6;}
	.st7{fill:url(#SVGID_3_);}
	.st8{fill:#4E4E4E;}
	.st9{fill:url(#SVGID_4_);}
	.st10{fill:none;stroke:#FFFFFF;stroke-width:6;}
	.st11{fill:url(#SVGID_5_);}
</style>
<g>
	<g>
		<g>
			<g>
				<g>
					<path class="st1" d="M219.2,76c-0.4,0-0.8-0.1-1.1-0.3c-0.4-0.2-0.5-0.5-0.5-0.9V48c0-0.4,0.2-0.7,0.5-0.9
						c0.4-0.2,0.7-0.3,1.1-0.3c0.4,0,0.8,0.1,1.2,0.3c0.3,0.2,0.5,0.5,0.5,0.9v26.8c0,0.4-0.2,0.7-0.5,0.9
						C220,75.9,219.6,76,219.2,76z"/>
					<path class="st1" d="M233.5,76.3c-1.7,0-3.2-0.3-4.5-0.8c-1.3-0.5-2.3-1.1-2.9-1.8c-0.7-0.7-1-1.3-1-1.9c0-0.3,0.1-0.5,0.2-0.8
						c0.1-0.3,0.3-0.5,0.6-0.7s0.5-0.3,0.7-0.3c0.3,0,0.6,0.2,0.9,0.5c0.3,0.3,0.7,0.7,1.2,1.1c0.5,0.4,1.1,0.8,1.8,1.1
						c0.7,0.3,1.7,0.5,2.9,0.5c1.1,0,2.1-0.2,2.9-0.5c0.8-0.4,1.5-0.9,1.9-1.6c0.5-0.7,0.7-1.7,0.7-2.8c0-1.1-0.2-2.1-0.7-2.8
						c-0.5-0.7-1.1-1.3-1.9-1.8c-0.8-0.5-1.6-0.9-2.5-1.3c-0.9-0.4-1.8-0.8-2.8-1.1c-0.9-0.4-1.8-0.9-2.6-1.4
						c-0.8-0.6-1.4-1.3-1.9-2.2c-0.5-0.9-0.7-2-0.7-3.4c0-1.5,0.3-2.7,0.8-3.6c0.5-1,1.2-1.7,2.1-2.3c0.9-0.6,1.8-0.9,2.8-1.2
						c1-0.2,2-0.3,3-0.3c0.7,0,1.5,0.1,2.3,0.2c0.8,0.1,1.6,0.3,2.3,0.5c0.7,0.2,1.3,0.5,1.8,0.8c0.5,0.3,0.7,0.7,0.7,1.2
						c0,0.2-0.1,0.5-0.2,0.7s-0.3,0.5-0.5,0.8c-0.2,0.2-0.5,0.3-0.8,0.3c-0.3,0-0.7-0.1-1.1-0.4s-1-0.5-1.7-0.8
						c-0.7-0.3-1.6-0.4-2.8-0.4c-1,0-1.9,0.1-2.7,0.4c-0.8,0.3-1.5,0.7-2,1.3c-0.5,0.6-0.7,1.4-0.7,2.4c0,1,0.2,1.7,0.7,2.4
						c0.5,0.6,1.1,1.1,1.9,1.5c0.8,0.4,1.6,0.8,2.5,1.1c0.9,0.3,1.9,0.7,2.8,1.2c0.9,0.4,1.8,1,2.6,1.6c0.8,0.6,1.4,1.5,1.9,2.5
						c0.5,1,0.7,2.3,0.7,3.8c0,1.9-0.4,3.5-1.1,4.7c-0.8,1.2-1.8,2.2-3.1,2.7C236.7,76,235.2,76.3,233.5,76.3z"/>
					<path class="st1" d="M253.5,76.3c-1.7,0-3.2-0.3-4.5-0.8c-1.3-0.5-2.3-1.1-2.9-1.8c-0.7-0.7-1-1.3-1-1.9c0-0.3,0.1-0.5,0.2-0.8
						c0.1-0.3,0.3-0.5,0.6-0.7s0.5-0.3,0.7-0.3c0.3,0,0.6,0.2,0.9,0.5c0.3,0.3,0.7,0.7,1.2,1.1c0.5,0.4,1.1,0.8,1.8,1.1
						c0.7,0.3,1.7,0.5,2.9,0.5c1.1,0,2.1-0.2,2.9-0.5c0.8-0.4,1.5-0.9,1.9-1.6c0.5-0.7,0.7-1.7,0.7-2.8c0-1.1-0.2-2.1-0.7-2.8
						c-0.5-0.7-1.1-1.3-1.9-1.8c-0.8-0.5-1.6-0.9-2.5-1.3c-0.9-0.4-1.8-0.8-2.8-1.1c-0.9-0.4-1.8-0.9-2.6-1.4
						c-0.8-0.6-1.4-1.3-1.9-2.2c-0.5-0.9-0.7-2-0.7-3.4c0-1.5,0.3-2.7,0.8-3.6c0.5-1,1.2-1.7,2.1-2.3c0.9-0.6,1.8-0.9,2.8-1.2
						c1-0.2,2-0.3,3-0.3c0.7,0,1.5,0.1,2.3,0.2c0.8,0.1,1.6,0.3,2.3,0.5c0.7,0.2,1.3,0.5,1.8,0.8c0.5,0.3,0.7,0.7,0.7,1.2
						c0,0.2-0.1,0.5-0.2,0.7s-0.3,0.5-0.5,0.8c-0.2,0.2-0.5,0.3-0.8,0.3c-0.3,0-0.7-0.1-1.1-0.4s-1-0.5-1.7-0.8
						c-0.7-0.3-1.6-0.4-2.8-0.4c-1,0-1.9,0.1-2.7,0.4c-0.8,0.3-1.5,0.7-2,1.3c-0.5,0.6-0.7,1.4-0.7,2.4c0,1,0.2,1.7,0.7,2.4
						c0.5,0.6,1.1,1.1,1.9,1.5c0.8,0.4,1.6,0.8,2.5,1.1c0.9,0.3,1.9,0.7,2.8,1.2c0.9,0.4,1.8,1,2.6,1.6c0.8,0.6,1.4,1.5,1.9,2.5
						c0.5,1,0.7,2.3,0.7,3.8c0,1.9-0.4,3.5-1.1,4.7c-0.8,1.2-1.8,2.2-3.1,2.7C256.7,76,255.2,76.3,253.5,76.3z"/>
					<path class="st1" d="M275.1,76.2c-1.6,0-3.1-0.3-4.4-0.9c-1.3-0.6-2.3-1.5-3.1-2.7c-0.8-1.3-1.2-3-1.2-5.1V48
						c0-0.4,0.2-0.7,0.5-0.9c0.3-0.2,0.7-0.3,1.2-0.3c0.4,0,0.8,0.1,1.2,0.3c0.3,0.2,0.5,0.5,0.5,0.9v19.5c0,1.9,0.5,3.4,1.4,4.3
						c0.9,0.9,2.3,1.4,3.9,1.4c1.7,0,3-0.5,3.9-1.4c0.9-0.9,1.4-2.3,1.4-4.3V48c0-0.4,0.2-0.7,0.5-0.9c0.3-0.2,0.7-0.3,1.2-0.3
						s0.8,0.1,1.2,0.3c0.3,0.2,0.5,0.5,0.5,0.9v19.5c0,2.1-0.4,3.8-1.2,5.1c-0.8,1.3-1.8,2.2-3.1,2.7
						C278.2,76,276.7,76.2,275.1,76.2z"/>
					<path class="st1" d="M289.2,76c-0.3,0-0.6-0.1-0.9-0.2c-0.3-0.1-0.6-0.3-0.8-0.5c-0.2-0.2-0.3-0.5-0.3-0.7c0-0.1,0-0.2,0-0.3
						l8.2-26.5c0.1-0.4,0.4-0.7,0.8-0.9c0.4-0.2,0.8-0.3,1.3-0.3c0.5,0,0.9,0.1,1.3,0.3s0.7,0.5,0.8,0.9l8.1,26.5
						c0.1,0.1,0.1,0.2,0.1,0.3c0,0.3-0.1,0.5-0.3,0.7c-0.2,0.2-0.5,0.4-0.8,0.5c-0.3,0.1-0.6,0.2-0.9,0.2s-0.5-0.1-0.8-0.2
						s-0.4-0.3-0.4-0.6l-1.8-5.9h-10.5l-1.7,5.9c-0.1,0.3-0.2,0.5-0.5,0.6S289.5,76,289.2,76z M293,66.6h8.9l-4.5-15L293,66.6z"/>
					<path class="st1" d="M312.8,76c-0.4,0-0.8-0.1-1.1-0.3c-0.4-0.2-0.5-0.5-0.5-0.9V48c0-0.4,0.2-0.7,0.5-0.9
						c0.4-0.2,0.7-0.3,1.1-0.3c0.4,0,0.8,0.1,1.1,0.2c0.3,0.2,0.6,0.4,0.8,0.7c0.2,0.3,0.5,0.7,0.7,1.2l9.9,19.4V48
						c0-0.4,0.2-0.7,0.5-0.9c0.4-0.2,0.7-0.3,1.1-0.3c0.4,0,0.8,0.1,1.2,0.3c0.3,0.2,0.5,0.5,0.5,0.9v26.8c0,0.4-0.2,0.7-0.5,0.9
						c-0.3,0.2-0.7,0.3-1.2,0.3s-0.8-0.1-1.2-0.4c-0.4-0.3-0.7-0.7-0.9-1.1l-10.4-20v20.4c0,0.4-0.2,0.7-0.5,0.9
						C313.6,75.9,313.3,76,312.8,76z"/>
					<path class="st1" d="M342.6,76.2c-1.5,0-3-0.3-4.3-0.9c-1.3-0.6-2.3-1.5-3.1-2.8s-1.2-3-1.2-5.1v-12c0-2.1,0.4-3.8,1.2-5.1
						c0.8-1.3,1.8-2.2,3.1-2.8c1.3-0.6,2.7-0.9,4.3-0.9c1.8,0,3.3,0.3,4.6,0.9c1.3,0.6,2.3,1.4,2.9,2.5c0.7,1,1,2.2,1,3.5
						c0,0.7-0.1,1.2-0.4,1.5c-0.3,0.2-0.7,0.4-1.3,0.4c-0.5,0-0.9-0.1-1.2-0.3c-0.3-0.2-0.4-0.5-0.5-0.8c0-0.4-0.1-0.9-0.2-1.4
						s-0.4-1-0.7-1.5c-0.4-0.5-0.9-0.9-1.6-1.2c-0.7-0.3-1.6-0.5-2.7-0.5c-1.7,0-3,0.5-3.9,1.4c-0.9,0.9-1.4,2.3-1.4,4.3v12
						c0,1.9,0.5,3.4,1.4,4.3s2.3,1.4,4,1.4c1.1,0,2-0.2,2.6-0.5c0.7-0.3,1.1-0.7,1.5-1.2c0.3-0.5,0.5-1,0.7-1.5
						c0.1-0.5,0.2-1.1,0.3-1.5c0-0.4,0.2-0.7,0.5-0.9c0.3-0.2,0.7-0.3,1.2-0.3c0.6,0,1,0.1,1.3,0.4s0.4,0.8,0.4,1.5
						c0,1.3-0.4,2.5-1.1,3.6s-1.7,1.9-3,2.5C345.9,75.9,344.4,76.2,342.6,76.2z"/>
					<path class="st1" d="M357.1,76c-0.4,0-0.7-0.1-1-0.3c-0.3-0.2-0.5-0.5-0.5-0.9V48.1c0-0.4,0.2-0.7,0.5-0.9
						c0.3-0.2,0.7-0.3,1-0.3h14.2c0.4,0,0.7,0.2,0.9,0.5s0.3,0.7,0.3,1c0,0.4-0.1,0.8-0.3,1.1s-0.5,0.5-0.9,0.5h-12.4V60h6.2
						c0.4,0,0.7,0.1,0.9,0.4c0.2,0.3,0.3,0.6,0.3,1c0,0.3-0.1,0.6-0.3,0.9c-0.2,0.3-0.5,0.4-0.9,0.4h-6.2V73h12.4
						c0.4,0,0.7,0.2,0.9,0.5c0.2,0.3,0.3,0.7,0.3,1.1c0,0.3-0.1,0.7-0.3,1s-0.5,0.5-0.9,0.5H357.1z"/>
					<path class="st1" d="M392.3,76.2c-1.6,0-3.1-0.3-4.4-0.9c-1.3-0.6-2.3-1.5-3.1-2.7c-0.8-1.3-1.1-3-1.1-5.1v-12
						c0-2.1,0.4-3.8,1.1-5.1s1.8-2.2,3.1-2.7c1.3-0.6,2.7-0.9,4.4-0.9s3.1,0.3,4.4,0.9c1.3,0.6,2.3,1.5,3.1,2.7s1.1,3,1.1,5.1v12
						c0,2.1-0.4,3.8-1.1,5.1c-0.8,1.3-1.8,2.2-3.1,2.7C395.4,76,393.9,76.2,392.3,76.2z M392.3,73.2c1.6,0,2.9-0.5,3.9-1.4
						s1.4-2.3,1.4-4.3v-12c0-1.9-0.5-3.4-1.4-4.3c-0.9-0.9-2.2-1.4-3.9-1.4c-1.6,0-2.9,0.5-3.8,1.4c-0.9,0.9-1.4,2.3-1.4,4.3v12
						c0,1.9,0.5,3.4,1.4,4.3C389.4,72.8,390.6,73.2,392.3,73.2z"/>
					<path class="st1" d="M407.9,76c-0.4,0-0.8-0.1-1.1-0.3c-0.4-0.2-0.5-0.5-0.5-0.9V48.1c0-0.4,0.2-0.7,0.5-0.9
						c0.3-0.2,0.7-0.3,1-0.3h14.1c0.4,0,0.7,0.2,0.9,0.5c0.2,0.3,0.3,0.7,0.3,1c0,0.4-0.1,0.8-0.3,1.1s-0.5,0.5-0.9,0.5h-12.2V60
						h6.3c0.4,0,0.7,0.1,0.9,0.4c0.2,0.3,0.3,0.6,0.3,1c0,0.3-0.1,0.6-0.3,0.9c-0.2,0.3-0.5,0.4-0.9,0.4h-6.3v12
						c0,0.4-0.2,0.7-0.5,0.9C408.7,75.9,408.4,76,407.9,76z"/>
				</g>
			</g>
		</g>
		<g>
			<g>
				<path class="st1" d="M225.8,176.4c-1.6,0-3.1-0.3-4.4-0.9c-1.3-0.6-2.3-1.5-3.1-2.7c-0.8-1.3-1.1-3-1.1-5.1v-12
					c0-2.1,0.4-3.8,1.1-5.1s1.8-2.2,3.1-2.7c1.3-0.6,2.7-0.9,4.4-0.9s3.1,0.3,4.4,0.9c1.3,0.6,2.3,1.5,3.1,2.7s1.1,3,1.1,5.1v12
					c0,2.1-0.4,3.8-1.1,5.1c-0.8,1.3-1.8,2.2-3.1,2.7C228.9,176.1,227.4,176.4,225.8,176.4z M225.8,173.3c1.6,0,2.9-0.5,3.9-1.4
					s1.4-2.3,1.4-4.3v-12c0-1.9-0.5-3.4-1.4-4.3c-0.9-0.9-2.2-1.4-3.9-1.4c-1.6,0-2.9,0.5-3.8,1.4c-0.9,0.9-1.4,2.3-1.4,4.3v12
					c0,1.9,0.5,3.4,1.4,4.3C222.9,172.9,224.1,173.3,225.8,173.3z"/>
				<path class="st1" d="M249.8,176.1c-0.4,0-0.8-0.1-1.1-0.3c-0.4-0.2-0.5-0.5-0.5-0.9v-26.8c0-0.4,0.2-0.7,0.5-0.9
					c0.4-0.2,0.7-0.3,1.1-0.3c0.4,0,0.8,0.1,1.1,0.2c0.3,0.2,0.6,0.4,0.8,0.7c0.2,0.3,0.5,0.7,0.7,1.2l9.9,19.4v-20.4
					c0-0.4,0.2-0.7,0.5-0.9c0.4-0.2,0.7-0.3,1.1-0.3c0.4,0,0.8,0.1,1.2,0.3c0.3,0.2,0.5,0.5,0.5,0.9v26.8c0,0.4-0.2,0.7-0.5,0.9
					c-0.3,0.2-0.7,0.3-1.2,0.3s-0.8-0.1-1.2-0.4c-0.4-0.3-0.7-0.7-0.9-1.1l-10.4-20v20.4c0,0.4-0.2,0.7-0.5,0.9
					C250.6,176,250.2,176.1,249.8,176.1z"/>
				<path class="st1" d="M281.2,176.1c-0.4,0-0.7-0.1-1-0.3c-0.3-0.2-0.5-0.5-0.5-0.9v-26.7c0-0.4,0.2-0.7,0.5-0.9
					c0.3-0.2,0.7-0.3,1-0.3h14.2c0.4,0,0.7,0.2,0.9,0.5s0.3,0.7,0.3,1c0,0.4-0.1,0.8-0.3,1.1s-0.5,0.5-0.9,0.5H283v10.1h6.2
					c0.4,0,0.7,0.1,0.9,0.4c0.2,0.3,0.3,0.6,0.3,1c0,0.3-0.1,0.6-0.3,0.9c-0.2,0.3-0.5,0.4-0.9,0.4H283v10.2h12.4
					c0.4,0,0.7,0.2,0.9,0.5c0.2,0.3,0.3,0.7,0.3,1.1c0,0.3-0.1,0.7-0.3,1s-0.5,0.5-0.9,0.5H281.2z"/>
				<path class="st1" d="M332.7,176.4c-0.5,0-0.9-0.1-1.3-0.3s-0.7-0.5-0.8-0.9l-7.9-26.5c0-0.1,0-0.2,0-0.4c0-0.3,0.1-0.5,0.3-0.7
					c0.2-0.2,0.5-0.4,0.8-0.5c0.3-0.1,0.6-0.2,0.9-0.2c0.3,0,0.6,0.1,0.8,0.2c0.3,0.1,0.4,0.3,0.5,0.6l6.7,23.7l3.8-14.6
					c0.1-0.4,0.3-0.6,0.7-0.8c0.3-0.2,0.7-0.2,1.1-0.2c0.4,0,0.8,0.1,1.1,0.2c0.3,0.2,0.5,0.4,0.6,0.8l3.8,14.6l6.7-23.7
					c0.1-0.3,0.2-0.5,0.5-0.6c0.2-0.1,0.5-0.2,0.8-0.2c0.3,0,0.6,0.1,0.9,0.2s0.6,0.3,0.8,0.5c0.2,0.2,0.3,0.4,0.3,0.7
					c0,0.1,0,0.3-0.1,0.4l-7.8,26.5c-0.1,0.4-0.4,0.7-0.8,0.9s-0.8,0.3-1.3,0.3c-0.5,0-0.9-0.1-1.3-0.3c-0.4-0.2-0.7-0.5-0.7-0.9
					l-3.5-13.1l-3.4,13.1c-0.1,0.4-0.4,0.7-0.8,0.9S333.2,176.4,332.7,176.4z"/>
				<path class="st1" d="M367.2,176.1c-0.4,0-0.8-0.1-1.1-0.3c-0.4-0.2-0.5-0.5-0.5-0.9v-26.8c0-0.4,0.2-0.7,0.5-0.9
					c0.4-0.2,0.7-0.3,1.1-0.3c0.4,0,0.8,0.1,1.2,0.3c0.3,0.2,0.5,0.5,0.5,0.9v26.8c0,0.4-0.2,0.7-0.5,0.9
					C368,176,367.6,176.1,367.2,176.1z"/>
				<path class="st1" d="M384.6,176.1c-0.4,0-0.8-0.1-1.1-0.3c-0.4-0.2-0.5-0.5-0.5-0.9v-26.8c0-0.4,0.2-0.7,0.5-0.9
					c0.4-0.2,0.7-0.3,1.1-0.3c0.4,0,0.8,0.1,1.1,0.2c0.3,0.2,0.6,0.4,0.8,0.7c0.2,0.3,0.5,0.7,0.7,1.2l9.9,19.4v-20.4
					c0-0.4,0.2-0.7,0.5-0.9c0.4-0.2,0.7-0.3,1.1-0.3c0.4,0,0.8,0.1,1.2,0.3c0.3,0.2,0.5,0.5,0.5,0.9v26.8c0,0.4-0.2,0.7-0.5,0.9
					c-0.3,0.2-0.7,0.3-1.2,0.3s-0.8-0.1-1.2-0.4c-0.4-0.3-0.7-0.7-0.9-1.1l-10.4-20v20.4c0,0.4-0.2,0.7-0.5,0.9
					C385.4,176,385.1,176.1,384.6,176.1z"/>
				<path class="st1" d="M416,176.1c-0.5,0-0.8-0.1-1.1-0.3c-0.3-0.2-0.4-0.5-0.4-0.8v-26.8c0-0.3,0.1-0.6,0.4-0.8
					c0.3-0.2,0.6-0.3,1.1-0.3h7.1c1.6,0,3.1,0.3,4.4,0.9c1.3,0.6,2.3,1.5,3.1,2.7s1.1,3,1.1,5.1v11.8c0,2.1-0.4,3.8-1.1,5.1
					c-0.8,1.3-1.8,2.2-3.1,2.7c-1.3,0.6-2.8,0.9-4.4,0.9H416z M417.9,173.1h5.2c1.6,0,2.9-0.5,3.9-1.4c0.9-0.9,1.4-2.3,1.4-4.3
					v-11.8c0-1.9-0.5-3.4-1.4-4.3c-0.9-0.9-2.2-1.4-3.9-1.4h-5.2V173.1z"/>
				<path class="st1" d="M453.7,176.4c-1.6,0-3.1-0.3-4.4-0.9c-1.3-0.6-2.3-1.5-3.1-2.7c-0.8-1.3-1.1-3-1.1-5.1v-12
					c0-2.1,0.4-3.8,1.1-5.1s1.8-2.2,3.1-2.7c1.3-0.6,2.7-0.9,4.4-0.9s3.1,0.3,4.4,0.9c1.3,0.6,2.3,1.5,3.1,2.7s1.1,3,1.1,5.1v12
					c0,2.1-0.4,3.8-1.1,5.1c-0.8,1.3-1.8,2.2-3.1,2.7C456.8,176.1,455.3,176.4,453.7,176.4z M453.7,173.3c1.6,0,2.9-0.5,3.9-1.4
					s1.4-2.3,1.4-4.3v-12c0-1.9-0.5-3.4-1.4-4.3c-0.9-0.9-2.2-1.4-3.9-1.4c-1.6,0-2.9,0.5-3.8,1.4c-0.9,0.9-1.4,2.3-1.4,4.3v12
					c0,1.9,0.5,3.4,1.4,4.3C450.8,172.9,452.1,173.3,453.7,173.3z"/>
				<path class="st1" d="M483.9,176.4c-0.5,0-0.9-0.1-1.3-0.3s-0.7-0.5-0.8-0.9l-7.9-26.5c0-0.1,0-0.2,0-0.4c0-0.3,0.1-0.5,0.3-0.7
					c0.2-0.2,0.5-0.4,0.8-0.5c0.3-0.1,0.6-0.2,0.9-0.2c0.3,0,0.6,0.1,0.8,0.2c0.3,0.1,0.4,0.3,0.5,0.6l6.7,23.7l3.8-14.6
					c0.1-0.4,0.3-0.6,0.7-0.8c0.3-0.2,0.7-0.2,1.1-0.2c0.4,0,0.8,0.1,1.1,0.2c0.3,0.2,0.5,0.4,0.6,0.8l3.8,14.6l6.7-23.7
					c0.1-0.3,0.2-0.5,0.5-0.6c0.2-0.1,0.5-0.2,0.8-0.2c0.3,0,0.6,0.1,0.9,0.2s0.6,0.3,0.8,0.5c0.2,0.2,0.3,0.4,0.3,0.7
					c0,0.1,0,0.3-0.1,0.4l-7.8,26.5c-0.1,0.4-0.4,0.7-0.8,0.9s-0.8,0.3-1.3,0.3c-0.5,0-0.9-0.1-1.3-0.3c-0.4-0.2-0.7-0.5-0.7-0.9
					l-3.5-13.1l-3.4,13.1c-0.1,0.4-0.4,0.7-0.8,0.9S484.4,176.4,483.9,176.4z"/>
				<path class="st1" d="M541.4,176.4c-1.6,0-3.1-0.3-4.4-0.9c-1.3-0.6-2.3-1.5-3.1-2.7c-0.8-1.3-1.1-3-1.1-5.1v-12
					c0-2.1,0.4-3.8,1.1-5.1s1.8-2.2,3.1-2.7c1.3-0.6,2.7-0.9,4.4-0.9s3.1,0.3,4.4,0.9c1.3,0.6,2.3,1.5,3.1,2.7s1.1,3,1.1,5.1v12
					c0,2.1-0.4,3.8-1.1,5.1c-0.8,1.3-1.8,2.2-3.1,2.7C544.5,176.1,543,176.4,541.4,176.4z M541.4,173.3c1.6,0,2.9-0.5,3.9-1.4
					s1.4-2.3,1.4-4.3v-12c0-1.9-0.5-3.4-1.4-4.3c-0.9-0.9-2.2-1.4-3.9-1.4c-1.6,0-2.9,0.5-3.8,1.4c-0.9,0.9-1.4,2.3-1.4,4.3v12
					c0,1.9,0.5,3.4,1.4,4.3C538.4,172.9,539.7,173.3,541.4,173.3z"/>
				<path class="st1" d="M565.4,176.1c-0.4,0-0.8-0.1-1.1-0.3c-0.4-0.2-0.5-0.5-0.5-0.9v-26.8c0-0.3,0.1-0.6,0.4-0.8
					c0.3-0.2,0.6-0.3,1-0.4h7.5c1.6,0,3,0.3,4.3,0.9c1.3,0.6,2.3,1.5,3,2.7c0.7,1.2,1.1,2.9,1.1,5v0.4c0,2.1-0.4,3.8-1.1,5
					c-0.8,1.3-1.8,2.2-3.1,2.7c-1.3,0.6-2.8,0.9-4.4,0.9h-5.4v10.3c0,0.4-0.2,0.7-0.5,0.9C566.2,176,565.8,176.1,565.4,176.1z
					 M567.1,161.8h5.4c1.6,0,2.9-0.5,3.9-1.4c0.9-0.9,1.4-2.4,1.4-4.3v-0.5c0-1.9-0.5-3.4-1.4-4.3c-0.9-0.9-2.2-1.4-3.9-1.4h-5.4
					V161.8z"/>
				<path class="st1" d="M594.9,176.1c-0.4,0-0.7-0.1-1-0.3c-0.3-0.2-0.5-0.5-0.5-0.9v-26.7c0-0.4,0.2-0.7,0.5-0.9
					c0.3-0.2,0.7-0.3,1-0.3h14.2c0.4,0,0.7,0.2,0.9,0.5s0.3,0.7,0.3,1c0,0.4-0.1,0.8-0.3,1.1s-0.5,0.5-0.9,0.5h-12.4v10.1h6.2
					c0.4,0,0.7,0.1,0.9,0.4c0.2,0.3,0.3,0.6,0.3,1c0,0.3-0.1,0.6-0.3,0.9c-0.2,0.3-0.5,0.4-0.9,0.4h-6.2v10.2h12.4
					c0.4,0,0.7,0.2,0.9,0.5c0.2,0.3,0.3,0.7,0.3,1.1c0,0.3-0.1,0.7-0.3,1s-0.5,0.5-0.9,0.5H594.9z"/>
				<path class="st1" d="M637.7,176.2c-0.3,0-0.6-0.1-0.9-0.4c-0.3-0.3-0.5-0.6-0.7-0.9l-6-11.7h-4.6v11.7c0,0.4-0.2,0.7-0.5,0.9
					c-0.3,0.2-0.7,0.3-1.2,0.3c-0.4,0-0.8-0.1-1.1-0.3c-0.4-0.2-0.5-0.5-0.5-0.9v-26.8c0-0.3,0.1-0.6,0.3-0.8
					c0.2-0.2,0.5-0.3,0.9-0.4h7.3c1.6,0,3.1,0.2,4.4,0.7c1.3,0.5,2.4,1.3,3.2,2.5c0.8,1.2,1.2,2.7,1.2,4.8c0,1.6-0.3,3-0.8,4
					c-0.5,1.1-1.2,1.9-2.1,2.5c-0.9,0.6-1.9,1-3,1.3l5.9,11.2c0.1,0.1,0.1,0.2,0.1,0.3c0,0.1,0,0.2,0,0.3c0,0.3-0.1,0.6-0.3,0.8
					c-0.2,0.3-0.5,0.5-0.8,0.6C638.3,176.1,638,176.2,637.7,176.2z M625.6,160.4h5.1c1.6,0,3-0.4,4-1.2c1-0.8,1.5-2.1,1.5-4
					c0-1.9-0.5-3.2-1.5-4c-1-0.8-2.3-1.2-4-1.2h-5.1V160.4z"/>
				<path class="st1" d="M651.9,176.1c-0.3,0-0.6-0.1-0.9-0.2c-0.3-0.1-0.6-0.3-0.8-0.5c-0.2-0.2-0.3-0.5-0.3-0.7c0-0.1,0-0.2,0-0.3
					l8.2-26.5c0.1-0.4,0.4-0.7,0.8-0.9c0.4-0.2,0.8-0.3,1.3-0.3c0.5,0,0.9,0.1,1.3,0.3s0.7,0.5,0.8,0.9l8.1,26.5
					c0.1,0.1,0.1,0.2,0.1,0.3c0,0.3-0.1,0.5-0.3,0.7c-0.2,0.2-0.5,0.4-0.8,0.5c-0.3,0.1-0.6,0.2-0.9,0.2s-0.5-0.1-0.8-0.2
					s-0.4-0.3-0.4-0.6l-1.8-5.9h-10.5l-1.7,5.9c-0.1,0.3-0.2,0.5-0.5,0.6S652.3,176.1,651.9,176.1z M655.7,166.7h8.9l-4.5-15
					L655.7,166.7z"/>
				<path class="st1" d="M689.2,176.1c-0.4,0-0.8-0.1-1.2-0.3c-0.3-0.2-0.5-0.5-0.5-0.9v-24.8h-6.5c-0.3,0-0.6-0.2-0.8-0.5
					c-0.2-0.3-0.3-0.7-0.3-1.1c0-0.4,0.1-0.7,0.3-1s0.5-0.5,0.9-0.5h16.3c0.4,0,0.7,0.2,0.9,0.5s0.3,0.7,0.3,1
					c0,0.4-0.1,0.8-0.3,1.1s-0.5,0.5-0.9,0.5h-6.5v24.8c0,0.4-0.2,0.7-0.5,0.9C690,176,689.7,176.1,689.2,176.1z"/>
				<path class="st1" d="M711.9,176.1c-0.4,0-0.8-0.1-1.1-0.3c-0.4-0.2-0.5-0.5-0.5-0.9v-26.8c0-0.4,0.2-0.7,0.5-0.9
					c0.4-0.2,0.7-0.3,1.1-0.3c0.4,0,0.8,0.1,1.2,0.3c0.3,0.2,0.5,0.5,0.5,0.9v26.8c0,0.4-0.2,0.7-0.5,0.9
					C712.7,176,712.3,176.1,711.9,176.1z"/>
				<path class="st1" d="M735.9,176.4c-1.6,0-3.1-0.3-4.4-0.9c-1.3-0.6-2.3-1.5-3.1-2.7c-0.8-1.3-1.1-3-1.1-5.1v-12
					c0-2.1,0.4-3.8,1.1-5.1s1.8-2.2,3.1-2.7c1.3-0.6,2.7-0.9,4.4-0.9s3.1,0.3,4.4,0.9c1.3,0.6,2.3,1.5,3.1,2.7s1.1,3,1.1,5.1v12
					c0,2.1-0.4,3.8-1.1,5.1c-0.8,1.3-1.8,2.2-3.1,2.7C739,176.1,737.5,176.4,735.9,176.4z M735.9,173.3c1.6,0,2.9-0.5,3.9-1.4
					s1.4-2.3,1.4-4.3v-12c0-1.9-0.5-3.4-1.4-4.3c-0.9-0.9-2.2-1.4-3.9-1.4c-1.6,0-2.9,0.5-3.8,1.4c-0.9,0.9-1.4,2.3-1.4,4.3v12
					c0,1.9,0.5,3.4,1.4,4.3C733,172.9,734.2,173.3,735.9,173.3z"/>
				<path class="st1" d="M759.9,176.1c-0.4,0-0.8-0.1-1.1-0.3c-0.4-0.2-0.5-0.5-0.5-0.9v-26.8c0-0.4,0.2-0.7,0.5-0.9
					c0.4-0.2,0.7-0.3,1.1-0.3c0.4,0,0.8,0.1,1.1,0.2c0.3,0.2,0.6,0.4,0.8,0.7c0.2,0.3,0.5,0.7,0.7,1.2l9.9,19.4v-20.4
					c0-0.4,0.2-0.7,0.5-0.9c0.4-0.2,0.7-0.3,1.1-0.3c0.4,0,0.8,0.1,1.2,0.3c0.3,0.2,0.5,0.5,0.5,0.9v26.8c0,0.4-0.2,0.7-0.5,0.9
					c-0.3,0.2-0.7,0.3-1.2,0.3s-0.8-0.1-1.2-0.4c-0.4-0.3-0.7-0.7-0.9-1.1l-10.4-20v20.4c0,0.4-0.2,0.7-0.5,0.9
					C760.7,176,760.3,176.1,759.9,176.1z"/>
			</g>
		</g>
		<g>
			<g>
				<g>
					<path class="st1" d="M221.2,131.1c-1,0-1.7-0.2-2.3-0.7c-0.6-0.4-0.9-1-0.9-1.6V92.6c0-0.6,0.3-1.2,0.9-1.6
						c0.6-0.4,1.3-0.7,2.3-0.7h9.9c2.5,0,4.7,0.4,6.7,1.3c2,0.8,3.6,2.2,4.7,4.1c1.2,1.9,1.8,4.4,1.8,7.5v15.1
						c0,3.1-0.6,5.6-1.8,7.5c-1.2,1.9-2.7,3.2-4.7,4.1c-2,0.8-4.2,1.3-6.7,1.3H221.2z M225.2,124.7h5.8c1.8,0,3.2-0.5,4.3-1.6
						c1-1.1,1.6-2.7,1.6-4.9v-15.1c0-2.2-0.5-3.8-1.6-4.9c-1-1.1-2.5-1.6-4.3-1.6h-5.8V124.7z"/>
					<path class="st1" d="M254,131.1c-0.9,0-1.8-0.2-2.5-0.6c-0.8-0.4-1.1-1-1.1-1.8V92.6c0-0.8,0.4-1.4,1.1-1.8
						c0.8-0.4,1.6-0.5,2.5-0.5c0.9,0,1.7,0.2,2.5,0.5c0.7,0.4,1.1,0.9,1.1,1.8v36.1c0,0.8-0.4,1.4-1.1,1.8
						C255.7,130.9,254.9,131.1,254,131.1z"/>
					<path class="st1" d="M275.2,131.6c-2.4,0-4.6-0.4-6.5-1.1c-1.9-0.7-3.5-1.6-4.6-2.6c-1.1-1.1-1.7-2.1-1.7-3.2
						c0-0.5,0.1-1.1,0.4-1.7c0.3-0.6,0.7-1.1,1.1-1.6c0.5-0.4,1-0.6,1.6-0.6c0.6,0,1.2,0.2,1.7,0.6c0.5,0.4,1.1,0.9,1.8,1.5
						c0.7,0.6,1.5,1.1,2.5,1.5c1,0.4,2.2,0.6,3.6,0.6c1.1,0,2.1-0.2,3.1-0.5c0.9-0.4,1.7-0.9,2.3-1.6c0.6-0.7,0.9-1.6,0.9-2.7
						c0-1.2-0.3-2.2-0.9-3c-0.6-0.8-1.5-1.5-2.6-2.1c-1.1-0.6-2.2-1.2-3.5-1.7c-1.3-0.6-2.5-1.2-3.8-1.8c-1.3-0.6-2.5-1.4-3.5-2.3
						s-1.9-2-2.6-3.3c-0.6-1.3-1-2.9-1-4.8c0-2.1,0.4-3.8,1.2-5.2c0.8-1.4,1.9-2.6,3.2-3.4c1.3-0.9,2.8-1.5,4.4-1.9
						c1.6-0.4,3.2-0.6,4.8-0.6c0.9,0,1.9,0.1,3,0.2c1.2,0.1,2.3,0.4,3.5,0.7c1.2,0.3,2.1,0.8,2.9,1.4c0.8,0.6,1.1,1.3,1.1,2.3
						c0,0.4-0.1,0.9-0.3,1.5c-0.2,0.6-0.5,1.1-0.9,1.6c-0.4,0.5-1,0.7-1.6,0.7c-0.6,0-1.2-0.2-1.8-0.5c-0.6-0.4-1.3-0.7-2.2-1.1
						c-0.9-0.4-2.1-0.5-3.7-0.5c-1.3,0-2.4,0.2-3.4,0.5s-1.7,0.8-2.2,1.4c-0.5,0.6-0.7,1.4-0.7,2.3c0,1,0.3,1.8,1,2.5
						c0.6,0.7,1.5,1.3,2.6,1.8c1.1,0.5,2.2,1,3.5,1.6c1.3,0.5,2.5,1.1,3.8,1.8c1.3,0.7,2.5,1.5,3.5,2.5c1.1,1,1.9,2.2,2.6,3.6
						c0.6,1.4,0.9,3.2,0.9,5.3c0,2.6-0.6,4.9-1.7,6.7c-1.2,1.8-2.7,3.2-4.7,4.1C280,131.1,277.8,131.6,275.2,131.6z"/>
					<path class="st1" d="M295.1,131.1c-0.7,0-1.4-0.1-2.1-0.4c-0.7-0.3-1.3-0.6-1.8-1.1c-0.5-0.4-0.7-1-0.7-1.6
						c0-0.1,0-0.3,0.1-0.6l10.8-35c0.3-0.8,0.8-1.4,1.8-1.8c0.9-0.4,1.9-0.6,2.9-0.6c1.1,0,2.1,0.2,3,0.6c0.9,0.4,1.5,1,1.7,1.8
						l10.7,35c0.1,0.3,0.1,0.4,0.1,0.6c0,0.6-0.2,1.1-0.8,1.5c-0.5,0.5-1.1,0.8-1.8,1.1c-0.7,0.3-1.4,0.4-2.1,0.4
						c-0.6,0-1.1-0.1-1.5-0.3c-0.4-0.2-0.7-0.6-0.9-1.1l-2.1-7.4h-12.8l-2.1,7.4c-0.1,0.6-0.4,0.9-0.9,1.1
						C296.3,131,295.7,131.1,295.1,131.1z M301.2,116.5h9.7l-4.8-17.1L301.2,116.5z"/>
					<path class="st1" d="M328.6,131.1c-1,0-1.7-0.2-2.3-0.7c-0.6-0.4-0.9-1-0.9-1.6V92.7c0-0.8,0.3-1.4,1-1.8
						c0.7-0.4,1.4-0.6,2.2-0.6h10.8c1.9,0,3.7,0.3,5.4,0.8c1.7,0.5,3.1,1.5,4.2,2.9c1.1,1.4,1.6,3.4,1.6,6.1c0,2.3-0.4,4.1-1.3,5.7
						c-0.9,1.5-2,2.6-3.5,3.2c1.2,0.4,2.2,1,3,1.7c0.9,0.7,1.5,1.7,2,2.8c0.5,1.2,0.7,2.7,0.7,4.5v1.2c0,2.9-0.5,5.2-1.5,6.9
						c-1,1.7-2.3,3-4,3.7c-1.7,0.8-3.6,1.1-5.7,1.1H328.6z M332.6,106.2h6.2c1.5,0,2.6-0.4,3.4-1.3c0.7-0.9,1.1-2,1.1-3.5
						c0-1-0.2-1.8-0.6-2.5c-0.4-0.7-0.9-1.2-1.6-1.6c-0.7-0.4-1.5-0.6-2.4-0.6h-6.2V106.2z M332.6,124.7h6.2c1.7,0,3-0.5,4-1.4
						c1-1,1.4-2.5,1.4-4.6v-0.9c0-2.2-0.5-3.7-1.4-4.6c-1-0.9-2.3-1.3-4-1.3h-6.2V124.7z"/>
					<path class="st1" d="M360.4,131.1c-0.9,0-1.8-0.2-2.5-0.6c-0.8-0.4-1.1-1-1.1-1.8V92.6c0-0.8,0.4-1.4,1.1-1.8
						c0.8-0.4,1.6-0.5,2.5-0.5c0.9,0,1.7,0.2,2.5,0.5c0.7,0.4,1.1,0.9,1.1,1.8v36.1c0,0.8-0.4,1.4-1.1,1.8
						C362.1,130.9,361.3,131.1,360.4,131.1z"/>
					<path class="st1" d="M373.8,131.1c-0.8,0-1.5-0.2-2.2-0.6c-0.7-0.4-1-1-1-1.8V92.6c0-0.8,0.4-1.4,1.1-1.8
						c0.8-0.4,1.6-0.5,2.5-0.5c0.9,0,1.8,0.2,2.5,0.5c0.7,0.4,1.1,0.9,1.1,1.8v32.1h13.6c0.7,0,1.3,0.3,1.6,1
						c0.3,0.6,0.5,1.4,0.5,2.2c0,0.8-0.2,1.5-0.5,2.2s-0.9,1-1.6,1H373.8z"/>
					<path class="st1" d="M401.2,131.1c-0.9,0-1.8-0.2-2.5-0.6c-0.8-0.4-1.1-1-1.1-1.8V92.6c0-0.8,0.4-1.4,1.1-1.8
						c0.8-0.4,1.6-0.5,2.5-0.5c0.9,0,1.7,0.2,2.5,0.5c0.7,0.4,1.1,0.9,1.1,1.8v36.1c0,0.8-0.4,1.4-1.1,1.8
						C402.9,130.9,402.1,131.1,401.2,131.1z"/>
					<path class="st1" d="M422.8,131.1c-0.9,0-1.8-0.2-2.5-0.6c-0.7-0.4-1.1-1-1.1-1.8V96.9H411c-0.7,0-1.3-0.3-1.7-1
						c-0.4-0.7-0.6-1.4-0.6-2.3c0-0.8,0.2-1.5,0.6-2.2c0.4-0.7,0.9-1,1.7-1h23.6c0.8,0,1.4,0.3,1.8,1c0.4,0.7,0.5,1.4,0.5,2.2
						c0,0.9-0.2,1.6-0.6,2.3s-1,1-1.7,1h-8.1v31.9c0,0.8-0.4,1.4-1.1,1.8C424.5,130.9,423.7,131.1,422.8,131.1z"/>
					<path class="st1" d="M453.3,131.1c-0.9,0-1.7-0.2-2.5-0.6c-0.8-0.4-1.1-1-1.1-1.8v-14c0-0.3-0.1-0.5-0.2-0.7l-11.5-19.9
						c-0.1-0.1-0.1-0.3-0.1-0.4c0-0.1,0-0.2,0-0.3c0-0.6,0.3-1.1,0.8-1.6c0.5-0.4,1.2-0.8,1.9-1.1c0.7-0.3,1.4-0.4,2.1-0.4
						c0.6,0,1,0.1,1.3,0.4c0.3,0.2,0.6,0.6,0.8,1.1l8.5,16.1l8.5-16.1c0.3-0.5,0.6-0.8,0.9-1.1c0.3-0.2,0.7-0.4,1.3-0.4
						c0.7,0,1.4,0.1,2.1,0.4c0.7,0.3,1.4,0.6,1.9,1.1c0.5,0.4,0.8,1,0.8,1.6c0,0.1,0,0.2,0,0.3c0,0.1-0.1,0.3-0.1,0.4L457,114
						c-0.1,0.2-0.2,0.4-0.2,0.7v14c0,0.8-0.4,1.4-1.1,1.8C455,130.9,454.2,131.1,453.3,131.1z"/>
					<path class="st1" d="M496.1,131.4c-2.3,0-4.4-0.4-6.4-1.3s-3.5-2.2-4.7-4.1c-1.2-1.9-1.8-4.4-1.8-7.5v-15.4
						c0-3.1,0.6-5.6,1.8-7.5c1.2-1.9,2.7-3.2,4.7-4.1s4.1-1.3,6.5-1.3c2.6,0,4.9,0.4,6.9,1.3c2,0.9,3.5,2.1,4.7,3.6s1.7,3.4,1.7,5.6
						c0,1.4-0.3,2.4-0.9,2.9c-0.6,0.5-1.5,0.7-2.7,0.7c-1,0-1.8-0.2-2.5-0.5c-0.7-0.4-1-0.9-1.1-1.8c0-0.4-0.1-1-0.2-1.6
						c-0.1-0.6-0.4-1.2-0.8-1.8c-0.4-0.6-0.9-1.1-1.7-1.5c-0.8-0.4-1.8-0.6-3.1-0.6c-1.9,0-3.3,0.5-4.3,1.6c-1,1.1-1.5,2.7-1.5,4.9
						v15.4c0,2.2,0.5,3.9,1.5,4.9c1,1,2.5,1.6,4.4,1.6c1.3,0,2.3-0.2,3-0.6c0.7-0.4,1.3-0.9,1.6-1.5c0.4-0.6,0.6-1.3,0.7-1.9
						c0.1-0.7,0.2-1.3,0.3-1.9c0.1-0.9,0.4-1.5,1.1-1.8c0.7-0.3,1.5-0.5,2.5-0.5c1.3,0,2.2,0.2,2.8,0.7c0.6,0.5,0.9,1.4,0.9,2.8
						c0,2.2-0.6,4.2-1.7,5.8s-2.7,3-4.7,3.8S498.7,131.4,496.1,131.4z"/>
					<path class="st1" d="M517.5,131.1c-0.8,0-1.5-0.2-2.2-0.6c-0.7-0.4-1-1-1-1.8v-36c0-0.8,0.3-1.4,1-1.8c0.7-0.4,1.4-0.6,2.2-0.6
						h19.8c0.8,0,1.4,0.3,1.8,1c0.4,0.7,0.5,1.4,0.5,2.1c0,0.9-0.2,1.7-0.6,2.3c-0.4,0.6-1,0.9-1.7,0.9h-15.8v11.1h8.5
						c0.7,0,1.3,0.3,1.7,0.9c0.4,0.6,0.6,1.3,0.6,2c0,0.6-0.2,1.3-0.5,1.9c-0.4,0.6-0.9,0.9-1.8,0.9h-8.5v11.2h15.8
						c0.7,0,1.3,0.3,1.7,0.9c0.4,0.6,0.6,1.4,0.6,2.3c0,0.7-0.2,1.4-0.5,2.1c-0.4,0.7-0.9,1-1.8,1H517.5z"/>
					<path class="st1" d="M566.2,131.3c-0.5,0-1-0.1-1.4-0.4c-0.5-0.3-0.8-0.7-1.1-1.3l-7.9-15.4h-4.7v14.5c0,0.8-0.4,1.4-1.1,1.8
						c-0.7,0.4-1.6,0.6-2.5,0.6c-0.9,0-1.7-0.2-2.5-0.6c-0.8-0.4-1.1-1-1.1-1.8V92.6c0-0.6,0.2-1.2,0.6-1.6c0.4-0.4,1-0.7,1.7-0.7
						h11c2.5,0,4.7,0.4,6.7,1.1c2,0.7,3.6,1.9,4.8,3.6c1.2,1.7,1.8,4,1.8,7c0,2.2-0.3,4-0.9,5.5c-0.6,1.5-1.5,2.7-2.6,3.6
						c-1.1,0.9-2.3,1.6-3.8,2l7.4,13.5c0.1,0.1,0.1,0.3,0.2,0.5c0,0.2,0.1,0.3,0.1,0.4c0,0.6-0.2,1.2-0.7,1.8
						c-0.4,0.6-1,1.1-1.7,1.4C567.7,131.1,567,131.3,566.2,131.3z M551.1,108.6h6.1c1.8,0,3.3-0.4,4.3-1.3s1.6-2.4,1.6-4.6
						c0-2.2-0.5-3.8-1.6-4.7c-1.1-0.9-2.5-1.3-4.3-1.3h-6.1V108.6z"/>
					<path class="st1" d="M586.8,131.1c-0.9,0-1.8-0.2-2.5-0.6c-0.7-0.4-1.1-1-1.1-1.8V96.9H575c-0.7,0-1.3-0.3-1.7-1
						c-0.4-0.7-0.6-1.4-0.6-2.3c0-0.8,0.2-1.5,0.6-2.2c0.4-0.7,0.9-1,1.7-1h23.6c0.8,0,1.4,0.3,1.8,1c0.4,0.7,0.5,1.4,0.5,2.2
						c0,0.9-0.2,1.6-0.6,2.3s-1,1-1.7,1h-8.1v31.9c0,0.8-0.4,1.4-1.1,1.8C588.5,130.9,587.7,131.1,586.8,131.1z"/>
					<path class="st1" d="M608.3,131.1c-0.9,0-1.8-0.2-2.5-0.6c-0.8-0.4-1.1-1-1.1-1.8V92.6c0-0.8,0.4-1.4,1.1-1.8
						c0.8-0.4,1.6-0.5,2.5-0.5c0.9,0,1.7,0.2,2.5,0.5c0.7,0.4,1.1,0.9,1.1,1.8v36.1c0,0.8-0.4,1.4-1.1,1.8
						C610,130.9,609.2,131.1,608.3,131.1z"/>
					<path class="st1" d="M622.2,131.1c-0.9,0-1.7-0.2-2.5-0.6c-0.8-0.4-1.1-1-1.1-1.7V92.7c0-0.8,0.3-1.4,1-1.8
						c0.7-0.4,1.4-0.6,2.2-0.6h19.4c0.8,0,1.4,0.3,1.8,1c0.4,0.7,0.5,1.4,0.5,2.1c0,0.9-0.2,1.7-0.6,2.3c-0.4,0.6-1,0.9-1.7,0.9
						h-15.4v11.1h8.5c0.7,0,1.3,0.3,1.7,0.9c0.4,0.6,0.6,1.3,0.6,2c0,0.6-0.2,1.3-0.5,1.9c-0.4,0.6-0.9,0.9-1.8,0.9h-8.5v15.3
						c0,0.7-0.4,1.3-1.1,1.7C624,130.9,623.2,131.1,622.2,131.1z"/>
					<path class="st1" d="M650.6,131.1c-0.9,0-1.8-0.2-2.5-0.6c-0.8-0.4-1.1-1-1.1-1.8V92.6c0-0.8,0.4-1.4,1.1-1.8
						c0.8-0.4,1.6-0.5,2.5-0.5c0.9,0,1.7,0.2,2.5,0.5c0.7,0.4,1.1,0.9,1.1,1.8v36.1c0,0.8-0.4,1.4-1.1,1.8
						C652.4,130.9,651.5,131.1,650.6,131.1z"/>
					<path class="st1" d="M673.4,131.4c-2.3,0-4.4-0.4-6.4-1.3s-3.5-2.2-4.7-4.1c-1.2-1.9-1.8-4.4-1.8-7.5v-15.4
						c0-3.1,0.6-5.6,1.8-7.5c1.2-1.9,2.7-3.2,4.7-4.1s4.1-1.3,6.5-1.3c2.6,0,4.9,0.4,6.9,1.3c2,0.9,3.5,2.1,4.7,3.6s1.7,3.4,1.7,5.6
						c0,1.4-0.3,2.4-0.9,2.9c-0.6,0.5-1.5,0.7-2.7,0.7c-1,0-1.8-0.2-2.5-0.5c-0.7-0.4-1-0.9-1.1-1.8c0-0.4-0.1-1-0.2-1.6
						c-0.1-0.6-0.4-1.2-0.8-1.8c-0.4-0.6-0.9-1.1-1.7-1.5c-0.8-0.4-1.8-0.6-3.1-0.6c-1.9,0-3.3,0.5-4.3,1.6c-1,1.1-1.5,2.7-1.5,4.9
						v15.4c0,2.2,0.5,3.9,1.5,4.9c1,1,2.5,1.6,4.4,1.6c1.3,0,2.3-0.2,3-0.6c0.7-0.4,1.3-0.9,1.6-1.5c0.4-0.6,0.6-1.3,0.7-1.9
						c0.1-0.7,0.2-1.3,0.3-1.9c0.1-0.9,0.4-1.5,1.1-1.8c0.7-0.3,1.5-0.5,2.5-0.5c1.3,0,2.2,0.2,2.8,0.7c0.6,0.5,0.9,1.4,0.9,2.8
						c0,2.2-0.6,4.2-1.7,5.8s-2.7,3-4.7,3.8S676,131.4,673.4,131.4z"/>
					<path class="st1" d="M693.4,131.1c-0.7,0-1.4-0.1-2.1-0.4c-0.7-0.3-1.3-0.6-1.8-1.1c-0.5-0.4-0.7-1-0.7-1.6
						c0-0.1,0-0.3,0.1-0.6l10.8-35c0.3-0.8,0.8-1.4,1.8-1.8c0.9-0.4,1.9-0.6,2.9-0.6c1.1,0,2.1,0.2,3,0.6c0.9,0.4,1.5,1,1.7,1.8
						l10.7,35c0.1,0.3,0.1,0.4,0.1,0.6c0,0.6-0.2,1.1-0.8,1.5c-0.5,0.5-1.1,0.8-1.8,1.1c-0.7,0.3-1.4,0.4-2.1,0.4
						c-0.6,0-1.1-0.1-1.5-0.3c-0.4-0.2-0.7-0.6-0.9-1.1l-2.1-7.4h-12.8l-2.1,7.4c-0.1,0.6-0.4,0.9-0.9,1.1
						C694.5,131,694,131.1,693.4,131.1z M699.4,116.5h9.7l-4.8-17.1L699.4,116.5z"/>
					<path class="st1" d="M734.9,131.1c-0.9,0-1.8-0.2-2.5-0.6c-0.7-0.4-1.1-1-1.1-1.8V96.9H723c-0.7,0-1.3-0.3-1.7-1
						c-0.4-0.7-0.6-1.4-0.6-2.3c0-0.8,0.2-1.5,0.6-2.2c0.4-0.7,0.9-1,1.7-1h23.6c0.8,0,1.4,0.3,1.8,1c0.4,0.7,0.5,1.4,0.5,2.2
						c0,0.9-0.2,1.6-0.6,2.3s-1,1-1.7,1h-8.1v31.9c0,0.8-0.4,1.4-1.1,1.8C736.6,130.9,735.7,131.1,734.9,131.1z"/>
					<path class="st1" d="M755.9,131.1c-0.8,0-1.5-0.2-2.2-0.6c-0.7-0.4-1-1-1-1.8v-36c0-0.8,0.3-1.4,1-1.8c0.7-0.4,1.4-0.6,2.2-0.6
						h19.8c0.8,0,1.4,0.3,1.8,1c0.4,0.7,0.5,1.4,0.5,2.1c0,0.9-0.2,1.7-0.6,2.3c-0.4,0.6-1,0.9-1.7,0.9H760v11.1h8.5
						c0.7,0,1.3,0.3,1.7,0.9c0.4,0.6,0.6,1.3,0.6,2c0,0.6-0.2,1.3-0.5,1.9c-0.4,0.6-0.9,0.9-1.8,0.9H760v11.2h15.8
						c0.7,0,1.3,0.3,1.7,0.9c0.4,0.6,0.6,1.4,0.6,2.3c0,0.7-0.2,1.4-0.5,2.1c-0.4,0.7-0.9,1-1.8,1H755.9z"/>
				</g>
			</g>
		</g>
	</g>
	<g>
		<path class="st1" d="M74.9,38.4c0.1,0,0.2,0.1,0.3,0.1c6.3,0.1,12.1,1.9,17.5,5c1.6,0.9,3.1,2,4.6,3c0.1,0,0.1,0.1,0.2,0.2
			c-4.7,2.2-8,5.8-9.8,10.7c-0.1-0.1-0.3-0.1-0.4-0.2c-3-2-6.3-3.2-9.8-3.8c-2.3-0.3-4.5-0.4-6.8-0.1c-4.8,0.5-9.1,2.3-12.9,5.3
			c-5,3.9-8.1,9.1-9.4,15.3c-0.4,1.8-0.6,3.6-0.5,5.5c0.2,4.9,1.5,9.4,4.3,13.5c1.3,2,2.9,3.7,4.6,5.5c1.8,1.9,3.6,3.8,5.4,5.7
			c0.2,0.2,0.2,0.4,0,0.6c-3.2,3.6-5.8,7.5-8,11.8c0,0.1-0.1,0.2-0.2,0.3c-0.7-0.7-1.3-1.4-2-2.1c-2.7-2.9-5.5-5.9-8.2-8.8
			c-5-5.6-8.3-12-9.8-19.4c-0.4-2.1-0.7-4.3-0.7-6.5c0-0.1-0.1-0.3-0.1-0.4c0-0.5,0-1,0-1.5c0-0.1,0.1-0.2,0.1-0.3
			c0-2.6,0.4-5.1,0.9-7.6c1.7-7.4,5.1-13.8,10.4-19.2c3.9-4,8.5-7,13.7-9c4.8-1.9,9.7-3.1,14.8-3.2c0.1,0,0.2-0.1,0.4-0.1
			C74.1,38.4,74.5,38.4,74.9,38.4z M87.3,95.7c-0.1,0-0.3,0.1-0.4,0.1c-6.7,2.6-12.6,6.4-17.7,11.6c-3.8,3.8-6.8,8.2-9.1,13
			c-3.1,6.4-4.7,13.2-4.9,20.3c0,2.2,0.1,4.4,0.3,6.6c0.2,2.7,0.8,5.4,1.5,8c2.9,10.1,8.4,18.4,16.6,25c7.9,6.4,17,9.9,27.2,10.7
			c2.1,0.2,4.2,0.1,6.2,0c2.3,0,4.6-0.4,6.8-0.8c4.4-0.9,8.6-2.3,12.6-4.3c6.3-3.2,11.6-7.4,16-12.9c3.9-4.7,6.7-10,8.7-15.8
			c0.1-0.3,0-0.5-0.2-0.8c-0.6-0.7-1.3-1.3-1.8-2.1c-2.6-3.7-5.2-7.5-7.8-11.2c-0.5-0.7-1-1.4-1.5-2.1c0,0-0.1,0-0.1,0
			c0,0.8,0,1.5,0,2.3c-0.1,1.3-0.2,2.7-0.4,4c-0.6,4.2-1.9,8.1-4,11.8c-6.6,11.3-16.5,17.4-29.6,18.3c-3,0.2-6-0.1-8.9-0.7
			c-8.9-2-16.1-6.7-21.5-14.1c-3.9-5.4-6.1-11.5-6.5-18.2c-0.1-1.7,0-3.5,0.1-5.2c0.1-1.9,0.4-3.7,0.9-5.5
			c2.6-9.9,8.3-17.4,17.2-22.6c0.3-0.2,0.4-0.3,0.4-0.7c0-4.5,0-9,0-13.5c0-0.3,0-0.6,0-1C87.4,95.7,87.4,95.7,87.3,95.7z
			 M94.5,102.1c0,4.8,0,9.7,0,14.5c0,1.2,0.1,2.3,0.3,3.5c0.6,2.9,2.2,5.1,5,6.3c1.5,0.7,3.1,0.9,4.8,0.9c10.6,0,21.3,0,31.9,0
			c1.9,0,3.3,0.7,4.3,2.3c0.6,1,1.3,2,1.9,2.9c3.6,5.3,7.2,10.5,10.8,15.8c0.8,1.1,1.6,2.2,2.5,3.2c1,1.1,2.4,1.8,4,1.7
			c1.4-0.1,2.6-0.7,3.6-1.5c1.4-1.1,2.2-2.5,2.3-4.4c0.1-1.7-0.5-3.2-1.4-4.7c-2-3.1-4.1-6.2-6.1-9.3c-3-4.6-5.9-9.3-8.9-13.9
			c-1.1-1.8-2.1-3.6-3.6-5.2c-2.9-3.1-6.5-4.3-10.6-4.1c-1.6,0.1-3.1,0.3-4.7,0.3c-3,0-5.9,0-8.9-0.1c-1.7,0-3.5,0-5.2,0
			c-1.3,0-2.1-0.5-2.3-1.5c-0.1-0.7-0.2-1.3-0.1-2c0.1-1.2,0.6-1.7,1.7-1.8c0.2,0,0.5,0,0.7,0c4.4,0,8.9,0,13.3,0
			c1.5,0,2.9,0,4.4-0.1c1.5-0.1,2.8-0.8,3.7-2.1c1.4-1.8,1.2-4.4-0.4-5.7c-0.8-0.7-1.8-1-2.8-1.1c-1-0.1-2-0.1-3.1-0.1
			c-4.5,0-9,0-13.4,0c-0.8,0-1.7,0-2.5-0.1c-1,0-1.4-0.4-1.5-1.4c-0.1-0.4-0.1-0.8-0.1-1.2c0-1.3-0.1-2.7-0.1-4
			c0-1.5,0.1-3.1,0.1-4.6c0-2.1-0.9-3.8-2.2-5.4c-0.2-0.3-0.4-0.3-0.8-0.2c-2.1,0.9-4.4,1.4-6.7,1.4c-2.4,0-4.6-0.5-6.8-1.4
			c-0.3-0.1-0.5-0.1-0.7,0.1c-1,1.1-1.7,2.4-2.1,3.8c-0.4,1.3-0.4,2.5-0.4,3.8C94.5,91.9,94.5,97,94.5,102.1
			C94.5,102.1,94.5,102.1,94.5,102.1z M156.1,115.6c1.6-1.7,3.1-3.3,4.7-5c2-2.2,4.1-4.3,6-6.6c5.9-7.1,8.7-15.4,9-24.6
			c0.1-2.4-0.2-4.8-0.6-7.2c-0.7-4.2-2-8.2-4-11.9c-4.4-8.2-10.8-14.3-19.3-18.2c-4.8-2.2-10-3.4-15.3-3.4c-1,0-2,0-3,0.1
			c-1.8,0.2-3.6,0.3-5.4,0.6c-6.1,1.1-11.6,3.5-16.5,7.2c-0.1,0.1-0.2,0.1-0.2,0.2c4.7,2.3,7.9,6,9.6,10.9c0.2-0.1,0.3-0.2,0.4-0.3
			c3.9-2.7,8.3-4,13.1-4.2c2-0.1,3.9,0.1,5.9,0.5c6.3,1.3,11.4,4.4,15.3,9.4c3.2,4,4.9,8.6,5.3,13.8c0.2,2.4,0.1,4.8-0.4,7.1
			c-0.9,4.6-3,8.7-6.2,12.2c-2.1,2.4-4.4,4.7-6.6,7c-0.5,0.5-0.9,1-1.4,1.5c0.2,0.2,0.3,0.4,0.5,0.6c0.6,0.7,1.1,1.5,1.8,2.1
			c2,1.7,3.7,3.6,5.1,5.8c0.6,0.9,1.2,1.9,1.8,2.9C155.9,115.8,156,115.7,156.1,115.6z M81.4,125c-1.3,1.8-2.4,3.8-3.3,5.8
			c-1.2,2.8-1.9,5.7-2.1,8.8c0,0.1,0.1,0.3,0.2,0.5c2.3,2.4,4.5,4.8,6.8,7.2c4.7,4.9,9.3,9.9,14,14.8c1,1.1,2.1,2.2,3.2,3.2
			c1.4,1.2,3.1,1.7,5,1.5c2-0.2,3.6-1.1,5-2.6c2.5-2.6,5-5.3,7.5-8c4.8-5,9.5-10.1,14.3-15.1c0.6-0.6,1-1.2,0.8-2.1
			c-0.3-1.5-0.5-3-0.8-4.5c0-0.1-0.2-0.3-0.4-0.3c-0.4,0-0.7,0-1.1,0c-3.8,0-7.7,0-11.5,0c-0.4,0-0.7,0.1-0.9,0.4
			c-3,3.2-6,6.4-9,9.5c-1.1,1.2-2.2,2.4-3.4,3.6c-0.8,0.8-1.3,0.8-2.1,0c-0.4-0.4-0.8-0.9-1.2-1.3c-5.7-6.1-11.4-12.1-17.1-18.2
			c-1.2-1.2-2.3-2.5-3.5-3.8C81.6,124.8,81.5,124.9,81.4,125z M102.8,52.4c-3,0.6-5.3,2.2-7,4.7c-1.5,2.2-2.3,4.7-1.9,7.3
			c0.4,2.8,1.8,5,4,6.7c2.4,1.8,5,2.6,8,2.2c3.3-0.5,5.7-2.3,7.5-5.1c1.2-1.9,1.7-3.9,1.5-6.1c-0.3-2.6-1.5-4.9-3.3-6.8
			c-1.9-1.9-4.2-3.1-7.3-3.1C104,52.3,103.4,52.3,102.8,52.4z"/>
	</g>
</g>
</svg>
