<svg id="Layer_1" data-name="Layer 1" xmlns="http://www.w3.org/2000/svg" viewBox="0 0 230 230"><defs><style>.cls-1{fill:#fff;}</style></defs><path class="cls-1" d="M73.94,9.26a2.07,2.07,0,0,0,.49.12,49.91,49.91,0,0,1,24.19,7c2.2,1.28,4.26,2.77,6.39,4.16a2.76,2.76,0,0,1,.31.27A25.86,25.86,0,0,0,91.74,35.65c-.19-.11-.36-.2-.51-.3a33.55,33.55,0,0,0-13.62-5.22A37.6,37.6,0,0,0,68.13,30a33.91,33.91,0,0,0-17.91,7.34,35.74,35.74,0,0,0-13,21.16,31,31,0,0,0-.75,7.61,35.28,35.28,0,0,0,6,18.73,59.18,59.18,0,0,0,6.37,7.58c2.51,2.63,5,5.26,7.53,7.88.3.31.32.51,0,.85a76.62,76.62,0,0,0-11.07,16.31c-.06.12-.13.23-.22.4-.93-1-1.84-1.9-2.72-2.85-3.8-4.08-7.65-8.12-11.39-12.26A55.83,55.83,0,0,1,17.34,75.8a48.93,48.93,0,0,1-1-9,3.14,3.14,0,0,0-.12-.61V64.1a2.7,2.7,0,0,0,.12-.49A51.13,51.13,0,0,1,17.66,53a54.71,54.71,0,0,1,33.4-39.2A58.8,58.8,0,0,1,71.62,9.38a2.33,2.33,0,0,0,.49-.12Zm17.2,79.36-.55.19a68.44,68.44,0,0,0-37.22,34.08A67.25,67.25,0,0,0,46.6,151c-.06,3,.19,6.07.43,9.09a55.86,55.86,0,0,0,2.13,11.09,68.24,68.24,0,0,0,60.71,49.4c2.87.21,5.77.11,8.65,0a55.94,55.94,0,0,0,9.46-1.15,67.07,67.07,0,0,0,17.43-6,68.49,68.49,0,0,0,34.24-39.78.92.92,0,0,0-.26-1,31.84,31.84,0,0,1-2.47-2.86c-3.62-5.16-7.19-10.36-10.78-15.54-.68-1-1.35-2-2-3l-.18,0c0,1.06,0,2.12,0,3.18-.12,1.84-.21,3.7-.49,5.52a45.54,45.54,0,0,1-5.58,16.31q-13.76,23.54-41,25.37a43.08,43.08,0,0,1-12.34-1,48.66,48.66,0,0,1-29.79-19.6,47.8,47.8,0,0,1-9-25.26,70.4,70.4,0,0,1,.08-7.26,36.15,36.15,0,0,1,1.2-7.67,48.94,48.94,0,0,1,23.8-31.29,1,1,0,0,0,.59-1c0-6.23,0-12.47,0-18.7V88.65C91.21,88.63,91.17,88.61,91.14,88.62Zm9.92,8.87c0,6.71,0,13.42,0,20.13a25.18,25.18,0,0,0,.46,4.83,11.58,11.58,0,0,0,7,8.79,16.43,16.43,0,0,0,6.65,1.22q22.11,0,44.22,0a6.54,6.54,0,0,1,5.95,3.18c.88,1.37,1.77,2.73,2.69,4.07q7.45,10.94,15,21.85a40.06,40.06,0,0,0,3.4,4.38,6.8,6.8,0,0,0,5.49,2.41,9,9,0,0,0,5-2.1,7.76,7.76,0,0,0,3.2-6.06,10.77,10.77,0,0,0-2-6.46c-2.79-4.29-5.65-8.54-8.43-12.84q-6.19-9.65-12.32-19.33a47.37,47.37,0,0,0-4.94-7.15c-4-4.33-9-6-14.76-5.7-2.17.1-4.33.38-6.51.41-4.1,0-8.21-.06-12.32-.08-2.41,0-4.82,0-7.22,0-1.81,0-2.85-.67-3.15-2.15a9.6,9.6,0,0,1-.16-2.78,2.45,2.45,0,0,1,2.36-2.56,7.1,7.1,0,0,1,1,0c6.16,0,12.31,0,18.47,0,2,0,4.06,0,6.07-.17a7.1,7.1,0,0,0,5.15-2.87,5.84,5.84,0,0,0-.58-7.89,6.84,6.84,0,0,0-3.89-1.5c-1.4-.13-2.82-.16-4.23-.16H134.07c-1.15,0-2.29,0-3.43-.08a1.93,1.93,0,0,1-2.14-1.91,13.22,13.22,0,0,1-.11-1.66c0-1.87-.07-3.74-.07-5.61,0-2.12.11-4.23.08-6.35a11.75,11.75,0,0,0-3-7.49.78.78,0,0,0-1.09-.27,22.4,22.4,0,0,1-9.34,2,24.21,24.21,0,0,1-9.46-1.93.71.71,0,0,0-.94.21,13.08,13.08,0,0,0-2.94,5.3,19.27,19.27,0,0,0-.53,5.28c0,7.06,0,14.11,0,21.16Zm85.41,18.78c2.18-2.31,4.36-4.61,6.52-6.93,2.8-3,5.71-5.93,8.33-9.09,8.18-9.88,12-21.4,12.42-34.14a52.63,52.63,0,0,0-.78-10,52.11,52.11,0,0,0-5.49-16.53,56.46,56.46,0,0,0-26.71-25.25,51.47,51.47,0,0,0-21.21-4.77,40.33,40.33,0,0,0-4.12.11c-2.53.23-5.06.41-7.55.85a53.6,53.6,0,0,0-22.92,10c-.11.08-.21.18-.35.3A26.07,26.07,0,0,1,138,35.88l.62-.39a33.8,33.8,0,0,1,18.11-5.83,35.95,35.95,0,0,1,29.39,13.7,34.19,34.19,0,0,1,7.33,19.1,37.44,37.44,0,0,1-.55,9.86,34.89,34.89,0,0,1-8.57,16.89c-3,3.31-6.09,6.5-9.14,9.75-.65.68-1.29,1.38-1.94,2.07.25.31.46.56.67.8a22.76,22.76,0,0,0,2.47,2.86,35.84,35.84,0,0,1,7.08,8.07c.85,1.31,1.64,2.66,2.5,4C186.15,116.6,186.32,116.44,186.47,116.27Zm-103.55,13a40.79,40.79,0,0,0-4.59,8.11,40.29,40.29,0,0,0-2.94,12.17,1,1,0,0,0,.26.65q4.71,5,9.44,10,9.7,10.25,19.4,20.48a60.24,60.24,0,0,0,4.47,4.43,9.14,9.14,0,0,0,7,2.12,10.73,10.73,0,0,0,6.87-3.55q5.22-5.51,10.43-11c6.59-7,13.17-14,19.78-20.9.83-.87,1.41-1.64,1.12-2.93-.45-2.08-.76-4.19-1.16-6.28a.64.64,0,0,0-.5-.36c-.5,0-1,.05-1.49.05q-8,0-16,0a1.61,1.61,0,0,0-1.29.55c-4.15,4.42-8.32,8.81-12.47,13.22-1.56,1.65-3.09,3.34-4.65,5-1.08,1.14-1.83,1.14-2.91.06-.58-.58-1.14-1.19-1.7-1.78l-23.76-25.2-4.92-5.22C83.11,129,83,129.15,82.92,129.27ZM112.63,28.65a15.27,15.27,0,0,0-9.77,6.49,13.76,13.76,0,0,0-2.57,10.18,13.91,13.91,0,0,0,5.59,9.27,14.24,14.24,0,0,0,11.08,3,14.67,14.67,0,0,0,10.41-7,12.93,12.93,0,0,0,2-8.53,15.21,15.21,0,0,0-4.63-9.36,13.85,13.85,0,0,0-10.08-4.29C114.25,28.46,113.43,28.49,112.63,28.65Z"/></svg>