<?xml version="1.0" encoding="utf-8"?>
<!-- Generator: Adobe Illustrator 25.2.1, SVG Export Plug-In . SVG Version: 6.00 Build 0)  -->
<svg version="1.1" id="Layer_1" xmlns="http://www.w3.org/2000/svg" xmlns:xlink="http://www.w3.org/1999/xlink" x="0px" y="0px"
	 viewBox="0 0 563.1 267.9" style="enable-background:new 0 0 563.1 267.9;" xml:space="preserve">
<style type="text/css">
	.st0{fill:url(#SVGID_1_);}
	.st1{fill:#FFFFFF;}
	.st2{fill:#FFFFFF;stroke:#FFFFFF;stroke-width:5;stroke-miterlimit:10;}
	.st3{fill:#221844;}
	.st4{fill:none;stroke:#FFFFFF;stroke-width:5;stroke-miterlimit:10;}
	.st5{fill:url(#SVGID_2_);}
	.st6{fill:#4E4E4E;}
	.st7{fill:none;stroke:#676767;stroke-width:6;}
	.st8{fill:url(#SVGID_3_);}
	.st9{fill:url(#SVGID_4_);}
	.st10{fill:url(#SVGID_5_);}
	.st11{fill:none;stroke:#FFFFFF;stroke-width:6;}
</style>
<path d="M484.7,19.1c-5.8,0.2-11.2,2.1-15.8,5.5c-10.2,7.4-19.2,16.3-28.2,25c-16.6,16-25.7,36.9-34.2,58c-1.1,2.8-1.7,5.8-3.8,8.1
	c-9,9.9-19.3,18.3-30.3,25.9c-1.2,0.8-2.7,1.9-4.1,0.8c-1.5-1-1.1-2.8-0.7-4.2c1.4-5.9,3.6-11.5,7.3-16.3
	c10.7-14.3,19.3-30,29.8-44.3c1.3-1.8,2.4-3.7,0.3-5.8c-2.1-2.1-4.2-1.6-6.3,0c-1.2,0.9-2.2,2-3.2,3.1c-10.6,11-17.3,24.3-23.7,37.9
	c-2.8,5.9-4.4,12.4-8.4,17.5c-9.9,12.6-21.8,23.4-34.7,32.8c-1.3,0.9-2.9,2.5-4.5,1.2c-1.5-1.1-0.6-3.1-0.4-4.7
	c0.9-6.3,4.6-11.4,7.7-16.6c1-1.6,1.4-3.1-0.4-4.3c-1.8-1.2-2.8,0.3-3.7,1.4c-1.9,2.5-3.7,5.1-5.5,7.7c-6.9,9.9-16,17.6-26.4,25.6
	c1-9.9,5.7-16.4,9.9-23.1c1.3-2,2.3-4-0.1-5.6c-2.3-1.5-3.4,0.9-4.2,2.2c-7.9,12-18.6,21.7-27.9,32.5c-5.2,6.1-11.6,9.1-18.6,11.8
	c-1.4,0.5-3.2,0.8-2.4-1.3c1.8-4.9,1.8-10.8,6.9-14c6.4-4,11.8-9.2,17.3-14.3c10.4-9.8,17-21.6,17.4-36.3c0.2-6.7-5.3-10.4-11.4-7.7
	c-3.5,1.6-6.4,4.1-8.8,7.2c-8.4,10.6-13.6,22.8-17.6,35.5c-0.8,2.6-1.9,5-3.9,6.8c-3.6,3.4-8.1,6-8.5,11.8c-0.1,0.8-1.5,1.7-2.5,2.2
	c-3.7,2-7.4,3.8-11.1,5.6c-2.9,1.4-4.8,0.4-5.5-2.7c-0.8-3.4-1.5-6.8-1.1-10.3c0.3-2.4-1-3.8-3-4.7c-2.2-1-2.9,1-3.8,2.3
	c-2,2.9-3.5,6-4.9,9.2c-1.2,2.9-1.7,6.2-4.9,9c-0.1-3-0.2-5.2-0.3-7.3c-0.2-2.9-1.2-5.4-4.2-6.1c-2.9-0.7-3.4,2.3-4.4,4
	c-2.8,4.8-5.2,9.7-7.8,14.8c-1.8-2.9-1.2-5.9-2.1-8.6c-0.6-1.7,0.3-2.8,1.7-3.7c1.4-0.9,4-1.5,2.5-3.9c-1.2-2-3.4-1.7-5.3-0.7
	c-15,7.8-31,13-46.3,19.9c-2.9,1.3-3.9,0.6-4.1-2.4c-0.5-5-0.9-10-2-14.8c-0.8-3.3,0.4-4.9,2.8-6.6c8.9-6.5,18.5-11.9,27.9-17.6
	c23.3-14.3,47.1-27.7,71.8-39.3c13.2-6.2,26.7-11.9,41.2-16.8c-0.6,1.9-2,3.4-0.4,4.5c1.5,1,2.9-0.2,4.1-1.1c1.4-0.9,2.6-2,3.9-3.1
	c1.2-1,2.3-2.1,1.5-3.8c-0.8-1.8-2.3-3-4.4-2.6c-2.5,0.4-5,0.6-7.3,1.5c-19.6,8.3-39.4,16.2-58.3,26.1
	c-18.9,9.9-37.1,20.9-55.6,31.7c-24.7,14.4-48.2,30.3-69.8,49c-8.5,7.4-16.7,15.4-20.9,26.4c-3.2,8.5-0.8,14.6,7.6,18.3
	c10.3,4.5,20.7,2.7,30.8-0.3c15.7-4.6,31.6-15.1,28.2-36.9c-0.1-0.7,0-1.3,0-2c-0.1-1.9,0.9-3.1,2.5-4c8.2-4.6,17.3-7.3,26.9-11.5
	c-3,5.1-6.7,8.4-8.8,12.8c-1.3,2.7-3.3,5.6-0.2,8.1c3.2,2.7,6.1,0.4,8.4-1.8c4.2-4,8-8.4,11.2-13.3c1.4-2.1,2.4-4.6,4.9-6
	c1.6,3.9,1.4,7.6,1.6,11.2c0.1,1.6,0.6,3,2.2,3.6c1.9,0.7,3.4-0.3,4.3-1.6c1.7-2.5,3.1-5.1,4.7-7.7c1.9-3,2.2-6.8,5.1-9.6
	c1.2,2.6,0.5,5,0.7,7.2c0.2,2.1-0.2,4.8,2.3,5.5c2.6,0.7,3.7-1.7,5-3.4c2.2-2.9,3.9-6.1,5.6-9.4c1.1-2.2,1.3-5,3.5-7
	c0.5,0.8,0.8,1.2,0.9,1.7c4,11.3,6.6,12.2,17.6,7c3.9-1.9,6.9-5.7,11.9-6.3c-0.7,3.2-1.4,6.1-2.1,9c-0.5,2.1-1.8,3.3-3.9,4.1
	c-13.6,4.9-26.9,10.8-39.9,17.1c-7.9,3.9-16,7.5-22.6,13.5c-1.4,1.2-3.4,2.4-1.9,4.4c1.9,2.6,3.7,0.2,5-0.9c2.7-2.3,5.3-4.6,8.5-6.1
	c9.7-4.8,19.4-9.6,29.3-14c7.6-3.3,15-7,23.3-9.1c-1.1,10.3-2.3,20.4-3.2,30.4c-0.2,2.5-1.4,6.9,2.5,6.9c3.5,0,2.8-4.3,2.9-6.9
	c0.4-9.3,1.9-18.5,3.2-27.7c0.5-3.5,2-6,5.7-7.3c12.6-4.7,25-9.9,37.8-14.3c11.1-3.8,21.8-8.6,33.3-11.6c8.6-2.3,16.7-7.2,25.4-10.1
	c15.7-5.1,31.3-10.4,47.2-14.8c5.5-1.5,10.6,1.3,13.3,4.3c3.6,4,6.1,3.4,9.2,1c4.7-3.6,9.5-7.4,13.7-11.6c4.4-4.5,9.6-6.9,15.5-8.4
	c3.7-0.9,5.2,0.5,6.4,3.6c1.3,3.5,0.3,6.6-1.3,9.5c-4.6,8.1-9.3,16.2-13.8,24.3c-0.8,1.4-2.1,3.3-0.4,4.5c1.6,1.1,2.6-1.1,3.4-2.1
	c4.8-6.8,9.7-13.5,14.2-20.5c2.7-4.2,4.7-8.7,4.5-14c-0.1-2.8-3.7-5.9-0.5-8.2c2.2-1.7,5.6-1.8,8.5-2.6c1.6-0.5,3.1-0.8,4.5,0.8
	c1.4,1.7,3,1,4.4-0.1c2-1.5,3.9-3.1,5.9-4.7c1.3-1.1,2.6-2,1.2-4.1c-1.3-1.9-2.5-2.6-4.9-1.7c-6.8,2.6-13.8,4.8-20.7,7.2
	c-2.4,0.9-4,0.5-5.7-1.5c-1.9-2.3-1.5-4.1,0.1-6.3c2.1-2.8,4.1-5.7,5.9-8.7c10-16.5,19.9-33.1,30.4-49.3c4-6.1,7.5-12.6,9-19.9
	C502.5,27.3,495.4,18.7,484.7,19.1z M389,86.6l11.2-10.1l-22.5,33.1L389,86.6z M282.2,124.3c1.3-1.2,2.8-2,4.5-1.3
	c2,0.7,2.1,2.5,2,4.2c-1.1,10.4-4.8,19.9-13,26.6c-3.5,2.8-9.3,2.2-13.4,5.7C266.9,146.5,271.8,133.8,282.2,124.3z M117.7,239.2
	c-7.3,4.2-15.2,6.6-24,6.8c-4.7-0.4-9.7-0.5-14.3-3c-3.8-2.1-5.3-5.2-4.6-9.5c1.3-7.8,5.7-13.8,11-19.2
	c11.6-11.7,24.3-22.2,37.9-31.6c1-0.7,2.1-2.2,3.5-1.3c1.3,0.9,1.5,2.6,1.3,4.1c-0.7,5.6-1.6,11.2-2.3,16.8c-0.4,2.8-1.7,4.9-4,6.6
	c-3.6,2.8-6.7,6-7.8,10.6c-0.5,2-1,4.5,1.4,5.2c2.2,0.7,3.1-1.7,3.5-3.4c1.3-4.9,4.4-8.1,8.6-10.5c1.1-0.6,2-2.3,3.4-1.5
	c1.4,0.8,1.3,2.6,1.3,4.1C133.4,225.4,127.5,233.6,117.7,239.2z M163.3,206.9c2.9-7.3,7.5-13.4,13.6-18.4c0.3,0.1,0.7,0.1,1,0.2
	C174.2,195.7,169.3,201.7,163.3,206.9z M279.1,180.4l9.7-9.4l2,6L279.1,180.4z M307,171l10.2-10.2l2.1,5.1L307,171z M345.2,157.7
	c4.7-6,10.6-10.5,15.6-17.1c1.4,5.1,3.3,9.1,9.2,8.8C361.8,152.2,353.5,155,345.2,157.7z M397.3,141.2c-7.5,2.2-14.9,4.4-23.4,6.9
	c8.9-7.3,17-13.9,25.5-20.9c0.3,4.1,0.7,7.6,0.8,11.2C400.4,140.4,398.8,140.8,397.3,141.2z M442.4,55.1c-2.9,7-5.5,14.1-7.4,21.5
	c-1,3.8-4.3,6.3-6.6,9.3c-4.6,5.9-9.4,11.5-14.1,17.3C421.3,85.7,430,69.4,442.4,55.1z M444.8,119.8c-1.6,3.3-3.9,6.6-7.3,7.9
	c-8.6,3.4-16.9,7.6-26,9.6c-4.6,1-6,0.4-5.9-4.2c0.1-6.2,1.1-12.6,4.7-17.6c7-9.6,14.9-18.6,23.3-28.9c0.1,11,4.5,19.3,8.7,27.6
	C443.2,116,445.9,117.5,444.8,119.8z M492.4,47.4c-4.8,9.9-11,18.9-17.1,28.1c-7.6,11.5-15,23.1-22.6,34.6c-3.2,4.9-3.5,4.9-6.5,0
	c-3.9-6.6-7.1-13.6-7-23.2c-0.7-7.9,4.5-15,10.1-22c4.1-5.2,8-10.6,11.9-16c1.7-2.4,3-4.9,0.4-7.6c-1.6-1.7-0.6-3,0.6-4.3
	c7-7.3,14.8-12.8,25.6-12.1c3.9,0.2,7.5,3.8,8,8.2C496.5,38.2,494.6,42.8,492.4,47.4z"/>
<ellipse transform="matrix(0.3904 -0.9206 0.9206 0.3904 6.901 297.3592)" cx="228" cy="143.5" rx="5.7" ry="2.9"/>
<ellipse transform="matrix(0.3904 -0.9206 0.9206 0.3904 94.1788 512.9354)" cx="434.4" cy="185.4" rx="5.7" ry="2.9"/>
</svg>
